<mxfile host="app.diagrams.net" agent="Mozilla/5.0 (Windows NT 10.0; Win64; x64) AppleWebKit/537.36 (KHTML, like Gecko) Chrome/134.0.0.0 Safari/537.36 Edg/134.0.0.0" version="26.1.1">
  <diagram name="ページ1" id="pJjhUGY2sFSe8G1JTUSf">
    <mxGraphModel grid="1" page="1" gridSize="10" guides="1" tooltips="1" connect="1" arrows="1" fold="1" pageScale="1" pageWidth="827" pageHeight="1169" math="0" shadow="0">
      <root>
        <mxCell id="0" />
        <mxCell id="1" parent="0" />
        <mxCell id="EJZDBceL4xU_-vnDfcPd-1" value="" style="shape=image;verticalLabelPosition=bottom;labelBackgroundColor=default;verticalAlign=top;aspect=fixed;imageAspect=0;image=data:image/png,iVBORw0KGgoAAAANSUhEUgAAA40AAAHICAYAAADqXg/PAAAAAXNSR0IArs4c6QAAAARnQU1BAACxjwv8YQUAAAAJcEhZcwAADsMAAA7DAcdvqGQAAFe+SURBVHhe7d17dFz1fe/9z+hmS9aMIYGeNDPErEN9asmEnpCCZLsNovGNgHlObMtKMQWDMcFpEZYNePWJiTE4PccEIyMSDNgyIsEUocvTYsDIIgs3LWjGTjhtwZJXnTwPDqP0tKTF2rpZo8s8f0izrflJY8vSSJrZ836ttVc039/eY+Kt2d6f2b+LKxwOhwUAAAAAwCjSzAIAAAAAABGERgAAAABATIRGAAAAAEBMhEYAAAAAQEyERgAAAABATIRGAAAAAEBMhEYAAAAAQEyERgAAAABATIRGAAAAAEBMhEYAAAAAQEyERgAAAABATIRGAAAAAEBMhEYAAAAAQEyERgAAAABATIRGAAAAAEBMhEYAAAAAQEyERgAAAABATIRGAAAAAEBMhEYAAAAAQEyERgAAAABATIRGAAAAAEBMhEYAAAAAQEyERgAAAABATIRGAAAAAEBMhEYAAAAAQEyERgAAAABATIRGAACmQcDvN0sAACQkVzgcDptFAMD41NXUqq62RpKUlz9fj2z/nrnLtKurqVUwGJQkFS4oVEFhobkLJlljwxHdd++9Wrx0iX6we7c8Ho+5C8Zh+OfP6/Ppke3b+bsFgDjgSSMASLIsyw5SExEMBhXwBxTwBxQMfmI2x11zc7MCfr8Cfv+Y//vramtUsWePKvbs0ZGGI2YzJllzc7Me2rJFkvTOkUbdtqZElmWZu2Echn/+Wk40ExgBIE540gggaQT8fvmbYnfpCwY/UesFglPwk6BaW1vNsiTJ7XbrldeqlZ+fbzaN2dPlg2FMkko3bdIDZZvMXeLqtpISBfwBSZLX69XP3n/P3GWE4ce8Uv0qTxqnkGVZum1NiVpaWuya1+vVK69Vy+fzRe2bbEbrbmu1WWpubj732rIUaGpS3vx8/WD37qh942H456+gsECvVFebuwAAxoHQCCBpRLr0TSav16s33j487icU0xkax/rnxSM0Njc3qz2OT8fcHs+Ewnqy+PaGDXrnSKP9evHSJXp+376ofZLBVXOuNEsXbeXqVXEPjoRGAJgcdE8FkDQ8s8cX5C6Gx+MZczfPVLZzxw7dVvKtuG07d+ww/wjHeWjLlqjAmJeXF/fQlEzqa+tUV1NrlgEACYjQCCBpuD0eFRQWqKCwQCtXr1Lppk2jbk88+aReqX511O1/f/jP+tXpj/Wr0x9r2/eiJ6nJy8ubcPdUYDQPbdmi+to6+3WkS+p4n2hPt4LCArNkc7vd9ue0oLBAi5cuUemmTVq8dEnUfgWFBSpYcPFPuQEAU4/uqQBSUl1NrR5+8EH7dTzGMyqFuqc+vuMxtTSfMMtRIn+GLhAylMAzzU6UZVm6b8OGqL+LeP2uTSeze/JYfoeG/9653W797P334h6a6Z4KAJOD0AjAkYZPve/2eKLGjQX8ft1W8i37dTxv4lMlNI7F8HFvvzr9cVRbKhht0pu8vDw9t39f0k96c7HML2mee+EFLVm2NGqfeCA0AsDkoHsqAEcaPvW+z3eFXa+rqdW379kQte8j27fHJTACEc3NzaMGRifMknqxLMvS0+Xl9uvFS5dMSmAEAEweQiMAx4t0gXux8oAefvBBtbe3221PPPmkVhWvHrZ3/NTV1OjFygNMrJNini7foxU3fSMqMEpK6jGME/Fi5QF7mRu3261Htm83d5kUzSea9fiOx6KW/AAAjA+hEUBKeGjLFu187DH7tdvtntTAKEmtra3a+dhjumHRH+mW5TcRIB2uublZtyy/ye4eaUrFwFhXUxv19/FAWdmUPWltb29X1YEDWnHTN/S1hYsIkAAwAYxpBOBIw8c2meI5htF0vj83Ii8vT3etX68ly5ZOOEgwpjExjOW8T+TvIB7rIl6Mify3RjQ3N2vFTd+wX0/FGMOxnAev16u71q/XquLVE/78AUCq4EkjAMdbd/fdysvLkyY5MJq8Xq/cbrdZVktLix5+8EF9beEiPV2+h6ePSayuplZfW7hoRFDJy8vTocNvRdVSSTAY1G1rSuzXbrdbT0zxmpRut3vUz1+kB8DXFi7SQ1u28PkDgDEgNAJwpOZhy0F4PB698lq1Vq5epTfePjwlgVGSVhUX62fvv6cnnnxyxBp1Guo+V7Fnj25Y9Ed6aMsWBfx+c5dJYbWdWyoB4xMJiw8/+KA9Xi+idNOmKf09SzSWZem+ezZEjR1ub29XXU1t1H6TLX9+vv7xow/13AsvaOXqVWaz2tvbVV9bpxsW/ZG+vWHDlH3+ACAZ0T0VgCNNVRdM0/mW3LAsS40NR/R0efmIoKGhJ5M/e/89s3xe4+meOryr42T+3Tixe2pdTW3M85eXl6cnntodFRad+HdwPqMtMzLcytWr9Mj27ZPWLfR8S25MxucPAFIFTxoBOFLzicSb8MLj8WhV8Wr76aPX641qn4pZJc2ueN4pmpTECRobjoz6ZDEyqVIqP13U0BjGry1cNGKZkeHqa+t025oSWdbUP+0e/vl77oUXVFBYENX+QFlZ1GsAwDmERgCOE/D7o7rG5SXgjXzk5nXwSV+BCgoLxrV23bbt2/VK9at6pfrVMc0E22KE6amaydIJlixbqtJN557kut1ulW7apJ+9/96Y/u6dLLIu5fDPXaQ7+BNPPhm1b0tLi762cNG0zmS6ZNlSvVJdbX/+vF5vyp9DADgfQiMAx6mtqbF/Xrx0yaR1hYuHgsLCoZvX8c0qmZ+fr4LCQhUUFo4pAL54oNL+2XzSiQt7oGyT1t19tx0WHyjblNC/X1OhrqZ21MD4g6GJb1YVr9ahw29FTUrT3t6u29aUTPk4R1Pk80e3VAA4P0IjAEcJBoOqr62zX69eXRzVnsoCfr89/lFDE/Xg4j2y/XuExSFPl+/Rww8+GBUYSzdtsgNjRH5+vt54+3BUd9X29nY9/OCD0x4cAQAXRmgE4Cj33bPB/tntdo+ry6dTPV1eHvV6PN3xrppz5Zi38R7HLJaJLxgM6pblN41YauSJJ5+MORmTz+fTK69VjxhLSHAEgMRHaATgGA9t2RI1CQcTW5zzYuWBqKeMK1evGlN3VsBUV1OrW5bfNGKG1CeefPKCX0R4PB69Uj24/M1wBEcASGyERgCO8NCWLVHdUhcvXaK71t8dtU+qqqup1c7HHouqEahxsSzL0rc3bBjRHdXr9erQ4bcuGBiH+8Hu3QRHAEgirNMIIKkFg0Hdd8+GqKceXq9Xb7x9eFrGnJ1vncapZlmWni7fo6oDB6Lq2773PQL1FBneTTfZ12n82sJFI5YbWbx0iX6we/e4P2vmlz2S9Hfv/cO4n4Kfb51GAMD48aQRQNJ6sfLAiG5ybrdbz+3fN+6bWKeIdCE0A+PK1asIjBiX5/bvs2dAjaxN+fy+iX3Whj9xdLvdeu6FF8YdGAEAk4fQCCBpNTefiF6PMS8v5RdYtyxLt5WUjLoI/bq77x4xqyUwVvn5+XrltWotXrpEr7xWfVHdUc/nB7t3a93dd+uV16qZuAoAEhTdUwEktUj3tpWrV+mR7dsn9NQjHgJ+v/xNg7N/Fi4YXD9xqtXV1OrhBx+0X+fl5emJp3andJieLk7qnpoMhn/+fD5f3IItAKQ6QiOApFdXU8vNoSHg9+uhzVt01/r1dEedRsOXD5mOLxAAAIgHQiMAAAAAICbGNAIAAAAAYiI0AgAAAABiIjQCAAAAAGIiNAIAAAAAYiI0AgAAAABiIjQCAAAAAGIiNAIAAAAAYiI0AgAAAABiIjQCAAAAAGIiNAIAAAAAYiI0AgAAAABiIjQCAAAAAGIiNAIAAAAAYiI0AgAAAABiIjQCAAAAAGIiNAIAAAAAYiI0AgAAAABiIjQCAAAAAGIiNAIAAAAAYiI0AgAAAABiIjQCAAAAAGIiNAIAAAAAYiI0AgAAAABiIjQCAAAAAGIiNAIAAAAAYiI0AgAAAABiIjQCAAAAAGIiNAIAAAAAYiI0AgAAAABiIjQCAAAAAGIiNAIAAAAAYiI0AgAAAABiIjQCAAAAAGIiNAIAAAAAYiI0AgAAAABiIjQCAAAAAGIiNAIAAAAAYiI0AgAAAABiIjQCAAAAAGIiNAIAAAAAYiI0AgAAAABiIjQCAAAAAGIiNAIAAAAAYiI0AgAAAABiIjQCAAAAAGIiNKaQ/hMtZgkAACBlcC8EjA+hMYUMWJZZAoDzCofDCbsBwMXiXggYH1eYf3lTRm9TQJkLCswyAMRk/hPR39yisGUpozD6WhKqqVd/MBhVyy4rjXod2SdzQcGI4yNCNfXKKl5pltXnD6i3KaB0n89ud7lc5m4AcF7cCwHjw5PGFHa28kWzBACjCluWQjX16tz8sHqbAmazemrrNBBsNcu29pK16i6vUJ8/oPaS29Xb0BjV3tvQqI4NG9VTWxdVj7RFjunasVPtJWvNXQBgXPpPtIx6TQMQjdCYojo3P0y/fgBj1tvwjnpq6xS22s0mSVKf/5hm7d6l7LJSezvXFlD/iRZ53n5d7uqDmrnpfp09UBV1/NkDVRr4JPpJZUTXju9r1pO75Hn7kC756AMNfNKqUE29uRsAXJT+Ey1qv+c+pXk8ZhMAA6ExBXVufliSNOupJ8wmABhVVvFKuasPjtp19EIGPmnVjPXr5Bq6MUv3+RRuix5X5K4+qJxHt0XVNNQddqC1NerPzVy2WH3NzVH7AcDFiARG9/7nlD4/z2wGYCA0phgCI4DJ0rFhoz6bM1fW8hVR3U+zilfaTx4Hgq06W/miMsY4pmhw/OT1UbWM/Hz1N9NTAsD4EBiBi0doTCFnn31OIjACmETu6peVuWyJOrdsVdiYpbC7vEJti4o0EGzVzPV3RbVdjLQrvGYJAMZk4OPTBEZgHJg9NUV0bn5Y/Z8Elb35AbMJAGIyn/J1l1dIxsyoA8FW9dTURdXaFhZp1lO7omZJHQi2qq8poLOVLyp9fr5m7d5lt2lo7GN3eYXc1QfPW+ttaNTZA1XKLuN6BmDsBj4+ra6/2iXPqy8TGIGLRGhMAZEuqVnFq5hmGsBFMf+JGC00jqa9ZK2yy0qVUVigUE290q7w2gGyt6FRHfd+R5eePhV1zGgBsc8fUOfmrZr9/lG71l1eof7mFrn3D/aeAIALiXRJzS79c8340zVmM4ALoHuqwzGGEcBk621o1Jmrr7W7o4YtS33+Y3Z7fzCorkd32q9ds8c+U2FGYcHQ+52bEr/PH1BmjHUeAcA0fAxj2pVzzGYAY0BodDACI4CpkLlsiVwejzq3bB1cy3HLVqV5zz1ZzFq2RP0tJ9W1Y+fgWouP7hzR7fV8Zqxfp87N5967/0TLuGZxBZB6mPQGiA9Co4O5PB4CI4Apkbt/rzSs+2rktSSl5+cp94Vn1d/cou7yCqVd4VPuvnPtFzJz/TplLlus7vIKDQSDyt2/116+AwDOp6+5mcAIxAFjGlNIb1OAMY0ALkoi/xPhcrnMEgCcF/dCwPjwpBEAAAAAEBOhEQAQk8vlStgNAABMDUIjAAAAACAmQiMAAAAAICZCIwAAAAAgJkJjChn4+LRZQgoKHXrTLAEAkBKG3wv1n2iJaksWyfrfjeRGaEwh4a4us5R0wuHwtG1OMfDvn5olAOdhXgsSaQNwcYbfCw1YVlSbyfy8TeV2Phf67wYmA+s0ppCzlVWauX6dWU4qw39dexsa1dc8+G3bzPXrRiz23VNZpQHLUprHoxnG/+/IAuQR6T6fsopX2q/7m1sUamiUJM0oXqU0n9cxszU64fcAmErmP5O9DY1Kn5+vNJ83qh4RqqmPup5EjHZdidWetWyJ0vOjFyMf7ZrmlOsSMFWG/xt4oTUbh3/2w5al3oZ3Rny2+/wB9TYFomrDP9+hmnr1B4NR7dllpfbPYcvS2coqSVLmggJlFA7+95zvs32h/25gMvCkMYV1PbrTLCWNnsoqdW7ZqoFgq0I19bKW3xrV3rFho85WVmkg2KqzlVXq2LDRboscE0ufPyDrplvV39wy+PPyFQo79Fu90KE31fnwX5plAKMYCLaqa8fOoWtP9E2ghq4dnVu2qvPBrWaT+ptbZN10qwaCrerzB9S+Zm1U+0CwNeq6075mrQaCrXZ7146d6i6v0ECwVd3lFercMvLPAHDxQg2N6qmpkyT11NSN6PoZtiyFaurVsWGjemoH9xsu8rmMpWtH7HutsGWpbWGRehsaNRBsVXvJ7erzRwfQCwlb1ogvwoHJQGhMUZ2bH07qIHS2sko527dp1u5d8rz9ugZaB2/ENHTz1XvkHeXu36tZu3cpZ/t31XvkHfvYgWBQaVd4lV1Wam/DvznsLq/QzE33K3ffXrmrDypz2RJHXpBDh95UR+lmZf7xH5lNAEbR1xRQ/1DvhtGEGhpHDZMadl2ZtXuX3NUHlXaFVz1DTxci7VmrV9rXHZfHo96hp44DwVb1HHhJnrcPDV3zDilUW3/eG1UAFzbw8Wl1PbpTGfn56qmp09nKKqVdEd0DYCDYqp7aOg18EvvzNqN4ZdQ9xfBeBOH29qi24U8Zz1ZWKX1+nv3Zzvnedy/qfiNsWbLWrB3RawGYDITGFNS5+WFJ0qynnjCbkkZW8UplLlssSXJ5PHK53VHtOd/7rt21K+0KX1TbhfT5j2lG8Sr7ddbSxee9UUxGkcCYW/GUslbcbDYDGEVW8Uq5qw8qfX50t9GInO3b5K4+aJaloYkrhncnm7F6lXqHPVEI1dZHdRuf/f5Ruwtq/4lmZRReb98Ypvm8yly62H46AuDi9Z9oUdcPnpJ7/3Pqa27W2coqeV4b/MJmuPT8PLmrD47olhoPff6AZt597nOfVbxSff5jUfvEEgmMM9evi7pnASYLoTHFOCEwamg8gMvjUdiy7K4fdkj0ee2brUh3sozC66OOH/ikVWeuvlafzZmrtoVFI0Lh8G/tXLM9I7qrJLO+EycIjMA06w8GR/T2GPgkqPaStWovWWs/ZZSkvuYWpfmiv/wyxzsCGLv+Ey1qv+c+5Ty0+byBcay6Ht2pz+bM1Wdz5o7aHdVavkKfzZmrM1dfO2J4jGv2uT8z8ueb9ySmcGcXgRFTjolwUkjbsluU9juXa+Z37jObkoYZ/j6bM1eSNHPT/VFdPjT0DV57ye2SJHf1y/bg8lBNvTof3KpZT+5S+vy8obGPQbmrD9rHXHr6VNR7fTZnbswnCMmk732/uit+qOzSv1DGwkKzGcAozOtOe8laZZeV2tcU02dz5o64hnRu2aqwZWnW7l3qb25Rxz0blT5/8AlGZLyjy+3WjPXrFLYs9Rx4yb5uRbqrDb/GdZdXKGxZylq2dNifAjjDwMenJ23G91DjT9X/L6eU89Bm9b7fpP5Tv4wZGIffIneXV6jPHxhxL/DZnLnKXLpY2WWlGvgkqI57vyPP4deVnp9nf7ZnbrpfWcuWqK8poO7yCl3y0Qf2scPvTzQUMHMe3abMBaP/Gx22LLV9/SZlrfwfyiz6mtkcV2keT8yeFUg9hMYU0bn5YQ18+qncP3nRbEoq5q9rZNaxs3ue0ez3jo7o1x950th/okWz3z9q18KWZX9TPxBsVduiIl16+pTClqUzX/5q1A1f5KL/uV//0q4lo0iX1Kxv3qrcp35gNgOIwbzujCc0DgRbBye3aR0cF5W1eqX9ZVXkupPzve/avSTaS9Yqo7BA2WWl9kQbs3bvst8vEiRzNj9g1wCcX/+JFrXfcZfcP35Rfc3N6q74kWa/+TejBkaNMTT2+QNKz8+z36Njw0al5+cpu6xUYctSf3NL1LXizNXXKnf/XmUUFtgBcXh7JEiOFhojXVIzb/iacv7yIbMZmFR0T00BkS6pyfyEcbjI7IEa6sqRXVaq9Lx5dneuPn/A7v6R5vNq1u5dURPlpPm8UV27XJ5z4yEjF/3h3cbCljXiSUOyGT6GMWP+fLMZwCRL83k1+/2j8hx+XZd8+Aul+bx2l9PIdSdz2RJ7/4zCAruLWrrPN2KCHSbBAS5OpEtq9oPnuqTmbH8kZmAcq4zCgqj3MH82v1wyh7+E20ZOSmgeI2MM42Q/YQRGQ2h0OKeMYRzO5XHr7J5noqalDlvt535uGxznaI4XilzIu3bsVHvJuenu+5oCURPppOfNixpz0FNTP2I8UTJh0htg+nWXV6inssp+IhGqqVfGsC+vMgqvjxrHOBBstb/cSp+fpz7/MfuaFrYs9TY0KmtYyAQQWyQwuvc/p/6PT58bwzgrx9z1ogwEW/XZnLlR9yN9TQGlD90z9DY06szV10Z9dvtbTtr3FGk+n0LDZncP1dQrzTtyJtThgZExjJguhEYHc2Jg1FD4y1y6WJ2bt6p7aL2ygdZW+1v6jAWD3/p1bNio7vIKdWzYqDTvuaeLM9ffpf4TLerccu74SJcwScp5dJu6yyvstlBt/YjxksmCwAgkhswFg2MTeyqr7C+thl93It1Qh193IqEwPT9PmUsXq33NWvualj4/j8lwgDEYHhj7mpsVeutwzDGMFysyk3Hn5q3qGVoTOmxZ9uzuw+9Heiqr1L5mbdRMyDnbv6vehkb7fqRrx84R9xsERiQKQqODpc/Pc1xgjJi1e9fQ1NQBhS1L7uqX7Yuwy+OR+7WDSvP51OcPKM3nk/u1c2MQ0nxe5e7fq7Blqc8f0Iz166Kmus8oLNCs3bvU5w8MjTk6997JZuDfPyUwAnE2fPzSaEbrzp5RWKCc7dvU6w/Y1yizffh1J/eFZ6NC4azdu5Q+P9++puXu2xt1PIDRDViW3Pufsyd0GW+X1HSfb9QvaiL3I6Ejgz0F3MMC6fD7kdCRRqXPz9es3efuy1weT9T9SM72bSOW9ghblrLLSgmMmHZMhJNCepsCUeuEJaPp/HV1uVxmKSmdrayKCskAzm86rzsX4pTrEjBVht8LXei+aDo/++f7bF/ovxuYDDxpBAAAAADERGhEUnG5XNO2AUhN5rUgkTYAk8f8vE3lBiQaQiMAAAAAICZCIwAAAAAgJkIjAAAAACAmQiMAAACAhNR/osUsYRoQGgEAAAAkpAHLMkuYBoRGAAAAAEBMhEYAAAAAQEyERgAAAABATIRGAAAAAEBMhEYAAAAAQEyERgAAAABATIRGAAAAAEBMhEYAAAAAQEyucDgcNou4OA8/+KAyMmcoPT3dbJqw/v7+uL2v7//8m4Jf+C9meUx+ffpjvfSTH5tlR9n5+F8pOzvbLDvKh//8j3ruhhs1c/06s8kRSlYV67/l5ZllRznx4T+r/m//xiw7xvHjx7XnqT36r1ddZTY5xn/8x2/1+3N/Tw9s3mw2Ocaf3Xa7rvyv/9UsO8qvfvVLvfLXr5hlx3h+71790z9/qM9//jKzKakNvxc609ysO/5yq6677jpzt4R1/Ngx/fh/PaFL8vPNprj43S9+UVmZmWb5orW0NGv3U7vN8rj0NgWUuaDALGOKERrj4Lv/93d1XcECs5xwLjn1S52Z+3tmeUx+cfyYHt/5mFl2lN1PluuquXPNsqO897Ojejz/aseGxjvW3q6Va75llh3l9fo6HXjpRbPsGAG/X1VVP9aym75hNjnGr06d0uc+N1t33X232eQYf/Hnf6HFS5ebZUd558jb+uGPfmiWHePFAwf0n//Z5rh/F4ffCzUcfkvr1t2hgsJCc7eElSzXyIbDb2nvc8+a5XEhNCYGuqcCAAAAAGIiNAIAAAAAYiI0AgAAAABiIjQCAAAAAGIiNAIAAAAAYkqZ0Hi28kV1bn7YLMfF//V3/6DcYKtZBgAAAICklzKhceb6uyRpUoJj0zVXK39fJcERAAAAgOOkTGiUpFlPPSFNQnD890svUfOG9QRHAAAAAI6TUqFRkxgcO3xegiMAAAAAx3GFw+GwWXSK/hMtGrAssyxJOvvscwqf7VH25gfMpjHpb26xfz70t3+rtPQMuVwu5XZ36cun/l/97Kv/XWfc7qhjIrJzcvSlL80xy5Pqpz99R5e7XPr02q+YTWPyya9/raofV5llR9n5+F8pOzvbLDvKqwd/oi3eL6m16AazyTGumjvXLDlKa2tQZ7u6zbKjXPr5z+lzn/u8WXaM7u5u/SYYNMuOMjMnW16vzyw7Sip8Fr/o8znu38XOd4/qlZMn9LnPXapPP/2tHv+r7+u6664zd0tYx48d067/9YTy8vPNpgkLhXq1YNEiszwuDYff0t7nnjXL49LbFFDmggKzjCnm6NB4Ie1/dpfSLr/cfvoYLz1//Zq6K34k9/7nlD4/z2zWnX92h765eo1ZnlQ/+XGVOixLDY1HzCakkBcPHNAXfvoz9axZbTYBAOB4ne8eVeiafN11991649Ah3bJihblLwgv4/SooLDTLE7bv+Rd0+Re+aJbHZSKhsevRnZpRvMq+h55IaOy45z7NeuoJuTweswkXKaVDY29TQKGaOmlYt9V46G0KKM3jUfs9940aHJMxNAaDQbU6/Jvx7u5ux32javrggw905XvHCI0AgJQ0PDS+9eab+sbNN5u7JDynh8b+Ey1R99ATCY09NXU6W1klz2sHCY4TlPKhMXNBgT2+MV7BMfK+5i99RDKGRjgDTxoBAKmM0BhbooRGGcFxwLLGHRpFcIwbQuPQL2Hn5oeVPj/PXppjIoa/b+SX3lNzUGm+wfEdhEZMl73PPiu9Uq13/svlZhMAAI73++0duuJ/3KqN3/mOjh8/nlTjGSNSITRq2D10dumfa8afTuy+meA4cYTGYd9cDASDdrCbiNHe1+Xx2L+khEZMlwf+4i+U+e7P9E8XERrDYcnlMqsXLx7vkyjvoQR7n3i8h+L0PvF4DyXY+yTKeyhO7xOP91CCvU+ivIcS8H3iIR7/LYnyHp//7X9ozoIC7Vx3t9mUNFqamydlIpw3Dx3SJZ+7zCyPy7GAX2Wby8zyRRv4+LS6/up/aca31ijtC18wmyVJaZdfJtflF76v6T36M4Vef0M5jz8q16wcs1mSlDE/j1AZA6FxAo+7Y7nQ+xIaAQAAMB6p8qQxItZwr/Ho+p8/UO/f/YwnjuOQcus0AgAAAEgO6fPz5N7/nNrvuU/9J84teTcemUVf08z162StWatwjGX5MDpCIwAAAFLS8ePHzRISUDyD44ziVQTHcSA0AgAAICV1dnSYJSSo4cFxYILLwBEcLx6hEQAAACmpq6vLLKWsUChklhJO+vw8eWriMx5xRvEq5e6Oz3J7qYDQCAAAgJT0jZtv1ltvvmmWU1JWVpZZSkhpPl9cQqOGQmi83svpCI0AAABIWb/zO79jlgAYCI0AAABIWX943XVmCYCB0AgAAAAAiInQCAAAAACIidAIAACAlMZkOMD5ERoBAACQ0q75gz/Q8WPHzDKmUDgcHteGqUFoBAAAQErz+XxqPnHCLGOa9FRWqbu8Qu0la9VeslYdGzaqu7xCff6AuSumCKERAAAAKe/zl12mYDBoljGF+ptb1LawSGcrqyRJGYUFmnn3OqXn5ylsWeq4Z6PaS9aah2EKEBoBAACQ8m5ZsUI+n88sYwp1l1coY0GBZr9/VNllpcouK1XmsiXKLitVzvZtmv3+UfWfaFGopt48FJOM0AgAAACkuFAoZJam3MAnQWUWFphlm8vjUfr8PPXzRHjKERoBAACAFJeVlWWWplz6/HydrXxRA8FWs0mS1NvQqD7/MWUuiB0sMTkIjQAAAMCQkydPMrZxmuRs/67S5+erbVGRPQlOZGtbWKTOLVuV+8KzyjjP00hMDkIjAAAAMGTevHl689Ahs4wp4PJ4NGv3Ls1+b3BM48y71ymjsEDZZaWa9dQuzX7/qDKXLTEPwxQgNAIAAADD/OnatXrrzTfNMqZIms+rjMICexKcjMICZRQWyOXxmLtiihAaAQAAgGE8Ho9ycnLU2jr62DpMnoFgqzq3bFV7yVqdufpafTZnrtoWDnZX7S6vUNiyzEMwBQiNAAAAgKHoxhvl9XrNMiZRb0Oj2hYVSZKyy0qVu3+vZr93VLOe2qWZd69Tnz+gtoVFBMdpQGgEAAAAMO3OHqjSzE33a9buXXaX1OFdVd3VB+XyeFincRoQGgEAAIDzsBL4ydbRd991zMQ94TZL6T6fWY6SdoVXAwl8PpyK0AgAAACcx29+8xv9/PhxszxlzNBqWZbeOHRIR999V9d+9au67PLLo9qTVeayJerasXPUJ4kDwVZ1l1eo/0SLZhSvMpsxyQiNAAAAwHnMmzdP//7v/67jUxgcLcvS0Xff1RtvvKGGw4ej2jwej25ZsUJFN94oj4NmFM0uK1XO9m3qLq/QZ3PmRm1ti4rU5w/I/dpBpfkYazrVCI0AAADABXzj5pvV2dGh48eOmU2TouHtt1V044265ZZbVFxSYjbHXSgUMkvTIqt4pWa/f1SXnj6l2e8dlbv6ZV3y4S906elTclcfVHp+nnkIpgChEQAAABiDohtv1HXXX2+WJ0XxmjVmaVJlZWWZpWkXmQSH9RmnH6ERAAAAmEZvvPGGjr77rllOOe0la9Xf3GK/7m1olLV8hd1F1Vq+Qr0NjVHHYGoQGgEAAIBxOHnypFm6KCdPntRrr76qr3zlKyq68UazOeX0+Y/ZazAOBFvVce93NKN4lWa/d1Sew68rc9kSddz7HfX5A+ahmGSERgAAAGCcfvzSS2ZpzHJzc7XmW9+S18vELqaBYFBpXq9mrF+nNJ9X6fl5yi4rVXrePPU2ERqnGqERAAAAGId58+bpf3zzm3rpxRfHNUGO7wJrEqYyl8ejgdZWDQRbo+phq11pjHGccoRGAAAAYJw8Ho/uvOuuMU+QY665iGhdj+5Ue8lade3YKZfbrfY1ayVJff6A2hYWKWxZyipeaR6GSUZoBAAAAKbAG4cOERrP45IPf6GcR7cpu6xU2WWlmrV7lx0QBz5ptZfjYDbVqUdonIBwODzqllF4/Yja8A0AAADO1draquf27o2aKOf4sWP671/5Cl1Sz8Pl8SijsMDeMpctUXZZqTS0fmN2WSmBcZoQGuMobFnq8wfsDQAAAKnH6/Xqvo0b9X/+9V/146qX9PPjx/Xpp58SGJG0CI1x0FNZpTNXX6szX/6qOjdvVXd5hTru2ajP5sxV28IiAiQAAEAKKrrxRt2x7k79t9//fX3j5pvNZiBpuMIp3F+ytymgzAUFZnnMwuGwussrFKqpV8727ypz2ZLodstSb8M76nxwq9zVLyujcPDPWnfHnfrm6jVR+062n/y4Sh2WpYbGI2ZTUtj3wgu65ppromoFhYX2z8FgUK3BIO0J3v53R/9ONxTdELN9ONrPtVuWpZbm5oRo//jjj3XllVfGbI+gPXHbP/74Y335mmuUn58/arsucDzt09+el5+v6ldf1YZ7742qIzlYlqWGhgZdftll41qbMeD3R/2OxKpdrH3Pv6DLv/BFszwuDYff0t7nnjXL5xUOh8f8oCXN51Oab3CZEpfLZTbHNNF7/1RGaJzAL044HFZ7yVrNWL3qvLM4dWzYaK8tI0LjuDxdvkcPlG0yy0gynMfkF48bE0yvgN8vGcEEyYfrafILBoNqeu89SVJxSYnZHNNo1+HRahfrR8/8UN4vXWmWx2W8obG9ZK36/BdeumTmpvvt+2pC49Sge2oc9F7gW5H+Ey1mCQAAAAko8sVKxBuHDo1rDUZJevenPzVLNp/Pp+KSkhGB0bIs1VRX660331RNdbWOvvtuVPtkycrKMktTzl19UGler2Zuul+Xnj4Vc4sERkwdQuMEZZeVqrehUe0laxWqqY+aCKenskptC4vk8rg1c/0681BchFXFq80SkhDnMfnlDXVpRPLKy8/nPDoA19Opc8uKFfrdL35Rr/71X+uNQ4fM5ph+fvy4vnrddWb5gjwej4pLSvSNm29WcUnJiC6sTv/8ZpeVKp0JgxIOoXGCMgoLNPv9o8ooLFBPbZ09CU53eYVCRxqVXVYqz9uHmB54gphtzBk4j8nPw7Us6Xk8Hs6jA3A9nVo+n0/f+tM/1S0rVphNMZ346KNJ+axNxnsmkqzilecd9oXpQWiMA5fHo+yyUrmrD8pdfVCXfPSB/TO/9AAAAKnl58eP65urVpllnIfL5RrXhqlBaIyTgWCr/fPw9Rr7mxnPCERYlmWWkGQ4h87AeUx+QWPGZUyPWOMN//C66xz/RBCphdA4Qf3NLWpbWKTOLQ9LknobGtW2sEjtJberu7xC1k23qr1krcL8Az0hT5fvMUtIQi9WHjBLSDLm1P9IPgG/n/PoAHU1tWYJ02BWbq6OHz9ulgHHITROUHd5hdKu8GrW7ickSV07vq+s4pW69PQpuasPavZ7R9V/okWhmnrzUAAAACSx6667Tp0dHWptPdfjDHAiQuMEhS1LWUuX2AuMDrS2akbxuT7saT6vMhYUaIAnjQAAAI5TdOONOvUv/2K//jlPHuFAhMYJSs/PU09NnT2mMaPwenWXV9jdUfv8AfUeeYepgwEAABxq+LIYHR0dUW2AExAaJyi7rFTp8/PVtqhocOxim6XeI++obWGRrOUr1HHPRs3cdD+zqE4Q61E5A+cx+Tl9fbBUwDqNzsD1NHF1dXWZJSDpERonyOXxaNbuXZr93lFll5VqRvEqzdx0v7LLSpXz6DbNfn+wjolhPSpn4DwmP2YDTH6s0+gMXE8T08mTJ3XNH/yBWU4KoVDILE2L0KE3zRISAKExTtJ8XmUUFmjG+nWD4XH9OmUUFsjFP8wAAAAp4efHjidtoM/KyjJL06L72efV9sdfN8uYZoRGAFOGteGSH+fQGTiPyY91GhPT5z7/ObOEizT78OuSRHBMMIRGJAXWaXQG1mlMfqzvl/xYp9EZWKcxMQ0MDJgljMPsv/+pRHBMKITGCQrV1Ku7vOKCW58/YB4KAAAAB8nNzTVLGCeCY2JxhcPhsFlMFb1NAWUuKDDLYxYOh9Xb0KiOe7+jjMLrlVEY+70yFxTY7evuuFPfXL3G3GVS/eTHVeqwLDU0HjGbksLT5Xv0QNkms4wkw3lMfgG/XwWFhWYZSSTg90sS5zHJOfV6+p0/WayrLv8dfeF3v2g2TZnf/NM/6v7bbzfLY3L2bLdmzsw2y5Pu9b/9W7nds83yRbv88svN0ri0tDSreE2xWR6X7h/slmbOVPb9f242SZIyrrlaGdf9oVke1UTv/VMZoXECvziRv7qODRuVnp835llSCY0Xz6n/OKYazmPyIzQmP0KjMzj1erpq1WotXLBIV82dazZNmTf+9m+0/8B+s5zQvvfI93TtH15vlqdNw+G3tPe5Z83yuJytrFJP1U+kYU8fx2ui9/6pjO6pcTBz/Tp+AScZ61E5A+cx+bG+X/JjnUZn4Ho6edLT081SwsvMzDRLjkJX1elHaIyDjMJzXU8xOZJ1+mpE4zwmP9b3S36s0+gMXE8nT39/v1lKeL29vWbJcQiO04vQCAAAAAxJS0++2+NUmYBn9t//VMqdpdChN80mTDLGNE6gW2nkr67PH1Bv0+DsqDOKV8nlcetsZZX6/AG5PB7NXL8u6kkkYxqRqizL4glHkuMcOgPnMfkFg0FHPm0cbUxjd3e3fjOF61J++M//qKofv2SWE9oPn/mhenom/rQxXmNJ4z2mceb6dWZ5XCZ675/KCI0T+MUJh8PqqaxS12PfV+bSxZKkvqaA0nxeha12ZRWv1ECwVaHaenkOv670/DyJ0DguTh3wn2o4j8mPiXCSHxPhOINTr6ejhcZfnTolj3uWNnz73qh9EV8/euaH8n7pSrM8LoRG50m+5+8JJnSkUTM33a/cfXuVu2+vMpctUX/LSblfO6jsslLN2r1LmUsXK9TQaB4KAAAAJISsrCyzBNgIjXGQNqyLz2BX1OuV5vPatbBl2T8DAAAAQDIhNE7QjNWr1F1eoc4tWxW2LKXn58ldfVCS1N/cos4tW9XnP6asZUvMQwEAAAAg4REaJyireKVy9++VJA0EW6Paunbs1EAwKHf1y/Z4RowP61E5A+cx+bG+X/JjnUZn4HoKYCoRGuMgo7BAs3bvGhEM3dUH5a4+yBqOceDEGeJSEecx+THjZvJjnUZn4HoKYCoRGifA5XKNuvX5j42oDd8AAAAAIFkQGgFMGYtJoZIe59AZOI/JLziF6xYCAKERSeHp8j1mCUnoxcoDZglJpqW52SwhyQT8fs6jA9TV1JolAJg0hEYAAAAAQEyERgAAAABATIRGAAAAAEBMhEYkBdajcgbOY/Jjfb/kxzqNzsD1FPEWCoXMEmAjNCIpsB6VM3Aekx/r+yU/1ml0Bq6niLesrCyzBNgIjQAAAACAmAiNAKYMa8MlP86hM3Aekx/rNAKYSoRGJAXWaXQG1mlMfqzvl/xYp9EZWKcRwFQiNAIAAAAAYiI0AgAAAABiIjROgnBnl1kCAAAAgKTk+NAYDodjbhmF14+oRbaJGDh92ixhgliPyhk4j8mP9f2SH+s0OgPXU6QKV06OWcI0cHxojAhblrrLK9ReslbW8hX6bM5ctS0sUnvJWnVu2aqBYKt5CBII61E5A+cx+bG+X/JjnUZn4HqKVJF25RyzhGmQEqExbFlqW1ikPn9AM+9ep5xHt8ld/bJmPbVL2WWlkqS2RYPtAAAAAJKT2XtwKnoZpoKUCI1nK6vk8njkrj6ozGVLlFFYELXN2r1LWatXqru8wjwUAAAAcLxQKGSWHKPPH4ja6GF48VIiNEpS+vw8sxQlzec1S0ggrNPoDJzH5Bfw+80SkkzA7+c8OgDXU8RbVlaWWUpqYctS146d+mzOXHXcs1Hd5RXqLq9Q16M71baoSNbyFfQyvAgpERozFxSo98g76i6vUNiyzGaFaurVU1mlrKVLzCYAAAAASaZrx/fV1xTQ7PeO6pKPPpC7+qDc1QflefuQLvnwF5pRvErtJbfz1HGMUiI0ZhQWyF39svr8AZ358lf12Zy59mQ4n82Zq+7yCuVs36YZ69eZhwIAAABIMqHaemWXlY7am9Dl8WjG+nVKz5un3oZGsxmjSInQKDs4HtSlp09p9ntHlfPoNnkOvz74+v2jyipeaR4CAAAAIAml581TX3OLWbaFLUsDwdZRQyVGSpnQOFyaz6uMwgKl559/nCMSB+tROQPnMfmxvl/yY51GZ+B6Cpxfdlmpeiqr1F6yVt3lFfYkOKGaenXt2Km2hUXKWFCgzGUMTxuLlAmNvQ2N6tiwUe0la9VTWaWwZalzy1adufpanbn6WnXt2GkeggTCelTOwHlMfqzvl/xYp9EZuJ4C55e5bMlgb8KlS9Tf3GJPhNNTWydJyt2/V7n79pqHIYaUCI19/oA67v2O0nxeZS1dop6aOrWvWauBYHDwF2b/XvU2DE6UAwAAACD5RcYu5u7ba0+E464+qJzt25RRWGDujvNIidDY2xRQ5tLF9mQ3M9ffpf6Wk/YvTEZhgWauX8e0uwAAAICD9PkD9lPGyNbb0DjqigqILSVCo4YGu0b0B4Mxa0hMrEflDJzH5Mf6fsmPdRqdgespcH79zS1qL1mrjns2Rj0YGgi2qru8Qm0Li+hleBFSIjRmLVuiPv8xdWzYqM4tW9VTWaWMwuvVuXmrvUZjqKaedRoBAAAAB+gur5DL47HXaMwuK1V2Walm7d4lz9uHlLt/r87ueUb955lhFeekRGhMz8+T5/DrSs/PU5rPq9z9g/2as4pXqqe2TqEjjcouK2WdRgAAAKSkUChklpJa75F3NPM89/aDQ9SuV4h1GsckJUKjhoJj5BuGyMDX7LJSe0AsgREAAACpKisryywltcyli3W2ssos2waX4DimLJbcGJOUCY2xDARbGQibBFiPyhk4j8mP9f2SH+s0OgPXU+D8sstKNfBJUGeuvlYdGzbak+B07dgpa/kKddyzUTM33c+67WOUMqGxa8dOnbn6Wn02Z646t2xVf3OLrOUr1LaoSGe+/FVZy1doINhqHoYEwXpUzsB5TH6s75f8WKfRGbieAueXnp9nj10cHgxdHo9mrr9Ls98/quyy0qhjEFtKhMZQTb1CNfXK2b5N7uqXNRAMyrrpVrlmezT7vaOa/d5RuWZ71LVjp3koAAAAgCSVUVhgD1GLbFnFK+Xiy7OLkhKhsT8YVOayJcoqXqmMwgLN2v2EJCln+zal+bxK83mVtXQJ3VQBAAAAhwjV1Ku7vEI9lVWjzpIaqqlnnfYxSonQmObxqK8pYHc/TfN5R/RhDh1p5BuHBMZ6VM7AeUx+rO+X/Fin0Rm4ngLn17Vjp7p27FR/c4t6/QG1r1k7oldhT22depsIjWOREqFxxvp1SrvCq7ZFRQrV1EtDg2MlqbehUWeuvlb9J1rG3a85dOhNswQAAABgmvQceEmzdu9S7r69yt23V+7XDqq34R11bNhI78JxSInQKEnu6oPyHH5dGQsGl9uIcM32KLusVLPfPzru2ZO6n31ebX/8dbMMAAAAYBq43G6FrXb79eDEOK9r4JOg2tesJThepJQJjRr6ZUnzeaNqGYUFmrF+3YS6ps4+/LokERwBAACABDBj/Tp17dipzi1b7SFqLo9HnrcPKX1+vtoWFmngE1ZOGKuUCI0DwdYRy2kMBFvtwbF9/sCEv22Y/fc/lQiOk4b1qJyB85j8WN8v+bFOozNwPQXOL7usVDnbt2kgGFRvQ2NU26zduwbXcWwlNI5VSoTGnpo69dTUnXtdWaW2RUXqqa1Tnz+gzs1bZS2/ddRZlS5GJDh2P/MjswkTxHpUzsB5TH6s75f8WKfRGbieAheWVbxS7uqDmrF+ndmkGevX6dLTp8Y9p0mqcYXD4bBZdJJwOKzu8gpp2OQ3n82Zq1lP7lJW8Up7v44NGyVJufv2SpJcLpfdNpqzlVVmyda95xkpPU3Z9/+52SRJeuXll3XNH3zFLI/ql7/8F+Xm5prlCzp79qz6+/rs1+3t7fo/vb1a8tQPovYzFRQW2j9blqWW5uao9tHk5edH3YBcaFY+t8ejfL7lBgAAhlWrVmvhgkW6au5cu/arU6fkcc/Shm/fG7Uv4utHz/xQ3i9daZbHpeHwW9r73LNmeVx6mwLKNOYkOZ/xRpsL3funupQNjZ7Dr0dNfNNTWaXQkUa5qw9KcfjFiXRTjTx9HO7OP7tD31y9xiyP6hfHj+nxnY+Z5XEJ+P1RoXC6nDx5UvPmzTPLAAAgxREap8++51/Q5V/4olkel0QIjd3lFVFPEfv8AZ2trLKHpLk8HnvNdsXh3t/pUqJ7qobGMPb5B9dqzCi8Xt3lFfYvzUCwVWcrq5QWx64ejHGM7f/71f9rli6I9aicgfOY/C7UkwCJj3UanYHrKXB+Z/c8Y/88EGxVe8ntSs/PU3ZZqWbePdhd1Vq+YsS8JxhdSoTGdJ9PA8Ggussr1LnlYfX5j6n3yDt2F9O2RUVKu8KrnO3fNQ+dEILj6Lq6u8wSAAAAMCn6mgJK83qVXVaqjMICZS5botx9e+XyeNTXFDB3xyhSIjRGBsFGtktPn4oa+Oo5/Lrc1QcntOxGLLP//qdS7iyFDr1pNqUsh/eIBgAAwEUKh8Ojbun580bUhm9j4fK4FbasCa+WkMocHxpdLlfMrc9/TC6XSxnz80e0xdPsw68ra8XNZjllXXbZZWYJAAAAUJ8/oPaStfpszlx9Nmeuznz5q4P/e/W1UWsujkV7ydrB5fWaWxRub7cnvuxvblF7yVqFLUuZyxabh2EUjg+NSDxFN95oli6I9aicgfOY/FjfL/mxTqMzcD2FE/VUVqnjno3KWrpEs987avcOvPT0KblfG5yscqzjEN3VLyu7rFRpQz0JZ266XxmFgxPq9J9oUZrPJ8/bhyalp6ETERqRFFiPyhk4j8mP9f2SH+s0OgPXUzhRT02dsstKNWP9OntW04j0/DzN2r1LaT5v1PrrsWQUFiijsEAz1q9TdlmpvWlo6FrkvTA2hEYAAAAACWHgAuMOw1a7/fRwNOaQs9GGpo224fwIjZhSJ0+eNEsAAACAZhSvUk9l1eA4RH/Anrimv7lFvQ2N6tyyVWHLUlbxSvNQTDJCI6bM0XffNUtjxnpUzsB5TH6s75f8WKfRGbiewolmrF+n3P171d/cos7NW+1JcKybblV3eYVcHrdmv3+UcYjTgNCIKdPd1a158+aZZQAAAEyzUChklqZFRmGBcvft1ez3oyfC8bx9SDnbtxEYpwmhEVOmq7vLLAEAACABZGVlmaVp1ecPRG39zS3mLphChEZMiZMnT2rJ0qVmGQAAAJAkhS1L3eUVOnP1teq4Z6O6yyvszbrpVrUtLFJvQ6N5GKYAoRFTYt68eROa4p31qJyB85j8WN8v+bFOozNwPYUTdZdXKFRTr9z9e3XJRx/IXX3Q3i49fUrZZaXquPc76vMHzEMxyQiNSAqsR+UMnMfkN5Evf5AYWKfRGbiewol6G95RdlmpMgoLzCZpaH3F9Lx56m0iNE41QiMmnXWB9XYAAAASRWPDEfvngN+vFysP2PXhbcMFg0E9Xb5HwWBQklRXU6vHdzwmSbqtpER1NbXGESPV1dTqtpIS+z1SUdoVXvVe4CniQLBV6XxpMuUIjZhUtTU1fKMNAACSQl1Nre67917dsvwmSdJDm7eo8UiDAn6/HtqyRf6hJWvMZWtaTjSrYs8etQaDCvj98vubFGhqGto3MPja77cDYSRkDt/qamsU8AdUV1M7oi1VZJeVqrehUe0la9VdXqHehkb1+QMK1dSra8dOtS0sUvr8PGUuW2weiklGaJyAcDg8ri1VWJYll8tllscllS6YTsZ5TH7mjRKSz2g3vEg+XE8nR8GCQj33wgu6a/16vVh5QK2trZKkxx/dofb2drU0n9DT5eV6urw86ji/36+CwgLdVvIt3VbyLdXX1qmlpUW3lXxLklRfW6fbSr5lP3FsDQZVsWePAv4me5OkgsKCqFpjQ4Mq9qTOuc4oLNDs948qa+kS9Te36OyBKnWXV6intk4aCpXu6oMsuzENCI1xMhBstb8JGf7NSDiFu2a++td/rVWrGagPAACSwy3Lb9LT5eWyLEs7HxvsXlpQuEB58wcnjyooXKCCwgV6oKws6rhAU5Py8ufr7977B71S/apWrl6lvLw8vVL9qiRp5epVeqX6VRUuKIw6btXqYvs9R9vuWr8+av9U4PJ4NGP9OuXu2xs1EU7O9m3KKl5p7o4pQmicoLBlqXPLVrUtKrK/CenzB3T2QJW6Hh18jN5dXmEe5niWZelrN9xglgEAABLWD3bvloYmGiqIMRmLKeD3q6WlRR6PZ2hcYuwnjZHXXp9PpZs2qbm5WQF/k16srLSfPNbV1Ng/ezwelW7aZPyJzsV6jImL0DhB3eUV6msKaPZ7R6O+DXFXH5Tn7UPK3b9XZ/c8k3Jryng8Hs2bN88sAwAAJKwly5ZqVXGxHtqyRatWF0uSKvbsUf1Q98iKPXtUsWeP/E3nung/tHmL/bOGupg+8eSTKt20acT2d+/9gzQUSh8o26RHtn9P27ZvlySVbtqkV6qr9cj27XK73bLaLHmvGNwvVbSX3G6vx9i1YycBMoEQGieov7lFM9evU5rPazZJQ32zM5cuVh+/9BPCelTOwHlMfqzvl/xYp9EZuJ7Gn2VZemjLFu187DEtWbZUvisGZ+h8pfpVbfve9+yfX6l+1f77DwaDsixLXm/0fWBdbY3qamrU2NCgFysrFfA32RPl2PvU1OqqOVdqxU3fUHt7uyr27NFVc67UfffeOzh+sqVFK276RswZW+MtFAqZpWnhrn5ZOdu/q7DVToBMIITGCXJ5POedGjhsWeprCigtBQbstra26ui775rluGA9KmfgPCY/ZkNOfqzT6AxcT+MvGAyqvrZOK1evsrupStJtJd+yxzdGupjesOiPFPD75fP59Mbbh+2AeTEKFhTqiSeftIPo8GD6vz/8Z/3vD/9ZpZs2qcAYBzlZsrKyzNK0yVy2RLN279IlH/5C2WWlGgi2RgXIgeDgBEWYOoTGCcouK1X/iRZ77GJ3eYV6Kgdneho+NfCM9evMQx2ltbVVP33nHRXdeKPZBAAAkPA8Ho/W3X23VhcX2zMMRyay2fa979nhLrK5h758GR7gg8FP7J99V/iUNz9fHo9HBYUL7HpEazCoYDAof5Nf/ia/mptPSJL8TYNrQ0bWh0zlL3lcHo+yilcqd9/eqADZUzPYXRhTh9A4Qen5eZr9/lFll5VKQ91VQ0caNRBslcvjUe7+wZmfnOzkyZOqq63VHXfeaTYBAAAkhbqaWlUdOGA/TRw+cc3Oxx4bUd+5Y4f5FmoNBu0wGfAHVF9bp9bW1lGXzQh+EoxaXqPlRPPQcedqkaU4EB0gI/fdmDqExjjJKl6p7LJSe3rgWbt3KbusVBljnHkrlqs+Caq3KTCmrbviR+bhUyI3N1elDzxgluOK9aicgfOY/FjfL/mxTqMzcD2NvwfKNulXpz8esWnoiaNZf6W6Our4YPATBfwB5efPl+yJbV5VQWGB/T7DrSperVeqq+3tkUcHJ8QZXjP/DKdzV7+s9Pw8s4wEQGiMg7Blqc8fUN+wsY39zS3qqaxSb0PjhNZq7MnMVOaCggtu6Vd4lXblHPPwKcG4CgAAkOpaTjTL7XaPOknR4zsGx0RGnkLeVlKiq+ZcGbVFnmqa9avmXJkyX/RkFBbIlcLdcRMZoXGC+psHxzN23LNxcJrg5SvUtWOnrJtuVU9N3eAajguLJhQcx6L/k1alXX65WZ4Ux48d08mTJ80yAACA45Ru2iTvBb4gX7W6WI88un1wUhyfT6tWF6twQaHy8vO1bfv2oaeKryp/aObibdu3jxgjeb4tlWY8Hgi2KlRTH/XgJVRTb88dwiQ404PQOEHd5RXKWFCg2e8f1SUf/kKu2R71HHhJ7uqX5Xn7kC756AO5PB6drawyD006lmXpheefV2dnJ2swAgCAlPBA2aYL9qpaVbxaBYWF9n6R1x6PR/n5+crPz1dB4blZUCOvx7qlymQ4vQ2Nals0OLlk55atspbfqo4NG+0ZU3sbGmUtX0FwnAaExgkKW5ayli6Ry+ORy+PRzLsHZ0kdPpYxY8HExjVeyEAwqPQrRl8nMl4sy9Krr/y17v32t6dlhtTRunog+XAek18qfdvtVKzT6AxcT+FEZw9Uaeam+wcfxnz0gdKu8Kr3yDvyvH1Is3bvkuftQ4PL3TU0modikhEaJyg9P09nK1+0f3kzFhTIXf2y3d7b0KhQbb3SL/AN1UT0f9KqtEl8fw1N93zvfd82y1PmQt/wITlwHpNfqnzb7WSs0+gMXE/hROE2K+qeeebd65SeN09pvnMPR9Ku8Gpgkod9YSRC4wRll5UqY0GBOrdsVZ8/IJfHYz9l7NiwUR33fkcz7r5TWcUrzUMT0i9+/nPVvPaant+7VxYfSAAAAEyRzGVL1F1eoVBNvcKWpcxlS+R5+5A01Luvp7JKff5jylq2xDwUk4zQOEEuj0c527fpko8+GLG8RnZZqS758BfK2b4tqh5PYctS2ji/MQ4Gg1Gv3/3pTzUwMKDiNWv07Y0b+SYaAAAAUya7rFRZxSt1tvJF9Te3RLV1bNio7vIKzXpyF8tyTANC4yRKz8+b9GmD+060KH3+2D44v/71r/XWm2/qkW2P6C8f3qr/p65edbW19hPFG7/+dV13/fXmYQmB9aicgfOY/FJl2ncnY51GZ+B6ingLhUJmaVpkl5XK8/ahEQ9jcvft1SUffZA0vfechtAYB/3NLfY0wGHLsh+ft5esVeeWrSO+KZkuX/rSl/SNm2/W4zsf1/98Ypfuf6BUq1avjnqi2NraqprqapbUAAAASCFZWVlmKaFM9oMYnB+hcYJ6Gxpl3XSr+ptb1OcPqG1hkTq3bFVPTZ1mrF4lSWpfszZppgb2er0qLinRv/3bv+nHL72kNw4N9iMHAAAAJovL5Rp16/MfG1EbvmFqEBon6OyBKs24+07l7tsrd/VBZSwoUO+Rd+R+7aCyildq1u5dSvN51VNTZx46Yb1NAWVO0nIeN9xwg+64807dsmKF2QQAAAAghRAa4yBj2HpXLo9HaV5v1CP0tCucMy320XffNUtTgvWonIHzmPxY3y/5sU6jM3A9BTCVCI0TlJ6fZ08N3FNZpVDt4BTBXTt2KmxZ6m1oVO+Rd5ThkFmerv3qV/Xjl16a8vDIelTOwHlMfsyqnPxYp9EZuJ4CmEqExgnKLitV5rLF6qmtU+hIo3JfeFbu1w6qt+EdnfnyV9Vx73c0c9P9yozzejL9J1qUMcZZU+PJ4/HojjvvlCTV1NSYzQAAAAAchtA4QZF1Gt3VB+WuPqjMZUuU5vNq9vtHdenpU7r09Clll5Wah03YgGVN6yxSRTfeqOLiYrMMAAAAwGEIjZMgUZbYcBLWo3IGzmPyY32/5Mc6jc7A9RTAVCI0JqGBYFDpV3jN8rQ6fuyYjh87ZpYBAAAAJDlXOBwOm8VUMdElK2L91fX5A8oojP2+6+64U99cvcYsj+rfDh3St/c/H1WL9d8dqx4R8PtVUFholuOmtqZGV3/5y5o3b57ZNGGP73hMD5RtsidvsCxLLc3NUfvk5ecnTLtGeSJDe75erDygB8o2xWy/0PG0T397YOg6Eqs9ItXavT5f1MQkidwe8PvV3Nys/GEzqF7M8bQnRvuh1w9p5199P2o/J1i1arUWLlikq+bOtWu/OnVKHvcsbfj2vVH7Ir72Pf+CLv/CF83yuDQcfkt7n3vWLI/Lhe5vL0Y83yvVEBon8IsTDofVXrJWff4LP2Gbuel+e2yjU0OjJNW89pq+fM01kxIcAQCAsxEap8+PnvmhvF+60iyPC6HReeieOkG5+/YqzetV1uqVcle/LHf1y8rZ/l3758g2o3iVeei4hC1LacO+7U40xWvGFoYBAACQOLKysswSYCM0TpDL41HmssVK83mVUVigjMICpefn2T9HtjRffMYg9p1oUfo0LLVxMXjKCAAAADgHoTEOcrZvm5RlNQAAAABguhEaMWmCwaBOnjxplgEAAAAkEULjBLhcrlE3aWQtun18km3wrs/nYxkOAAAAIMkRGjGp/uTrX1fNa6+ZZQAAAABJgtCISeX1etXd3W2WAQAAACQJQmOS6D/RoowEnzU1ljvuvNMsAQAAAEgShMYkMWBZciXw+owAAAAAnInQCAAAAACIidCYBAaCQaVf4TXLSYeZVAEAABJTKBQyS4CN0JgE+j9pVZrPZ5aTzq9//WuzBAAAgASQlZVllgAboRFTZsnSpXrrzTfNMgAAAIAERmhMcJl9fUpzyAQ4Ho9Hv/3tb80yAAAAgARGaExwl1jtSk/SpTZG8ydf/7pZAgAAAJDACI0J7pPf/YJ6mwJj2pJhshyfA8ZmAgAAAKmE0JjgfnvpJcpcUDCmzQmT5QAAAABILITGOAgdYnIXAAAAAM5EaIyD7mefV9sfM1ZvrJhBFQAAAEgehMY4mH34dUkiOI6RSy6zBAAAACBBERrjZPbf/1QiOI7Jp7/91CwBAAAASFCExjiKBMfO0s1mE4a57LLLzBIAAACABOUKh8Nhs5gqepsCylxQYJbH5GxllVmyde/eI2VlKvv+PzebJEmvvPyyrvmDr5jlUX366af6bRyezJ0585k+tiyteXG/2RSloLDQ/tmyLLU0N0e1jyYvP18ej8d+HfD7o9pNaWlpuu76680yAABIcatWrdbCBYt01dy5du1Xp07J456lDd++N2pfxNePnvmhvF+60iyPS8Pht7T3uWfN8rhM5H7dFM/3SjWExgn84oz3r27dHXfqm6vXmOVJ9ZMfV6nDstTQeMRsAgAASAiExumz7/kXdPkXvmiWx4XQ6Dx0T42DPn9AHRs26szV1+qzOXPtrW1hkTq3bNVAsNU8BAAAAACSAqFxgkI19eq4Z6PS8/OUu3+vLj19SpeePqVLPvyFZj21S5JkLV9BcAQAAACQlAiNE9RTW6cZ69cpu6xUGYXnHne7PB5lFBZo1u5dSvN51VNTF3UcAAAAACQDQuMUcM0+N0kMAAAAACQTQuMEzVi9Sj2VVeour1CfP2DXw5alPn9AnVu2qv9Ei2YUr4o6DgAAAACSAaFxgrKKVyp3/171N7eo456N9iQ4Z778VXVu3ipJ8rx9SGk+r3koAAAAACQ8QmMcZBQWKHffXl3y0Qf2RDiXnj6l2e8ftcc0AgAAAEAyIjQCAAAAAGIiNMZBZJ3GtoVFUes0WstXqLu8QmHLMg8BAAAAgKRAaJygnsoqddyzUVlLl8j92kHNenKXXG63Zm66X9llperzB9S2sIh1GgEAAJCwQqGQWQJshMYJCh1pVHZZqbKKVyrN51VW8UrlbN+mUE29Mpctkbv6oFweD+s0AgAAIGFlZWWZJcBGaIyD/mDQLEV1SU27wqs0D2s1AgAAAEg+hMYJyi4rVaimXp1btqq7vEJdO3aqa8dOzVi/TpLUtrBI/SdalLlsiXkoAAAAACQ8QuMEZRQW2Osw9vkDkqRZu3cpu6xUGgqVl3z0ActuAAAAAEhKhMY4SPN5lV1WKnf1QeVs3xb1VDGreGXUvgAAAACQTAiNcTIQbI0axzgQbFWfP2A/fQQAAACAZJQyobGnpk79J1rM8oQNBFtlLV+htkVFOvPlr6pjw0b1VFapbVGROu7ZqPaS22UtX8FajQAAAMAFxHON84577ovbe6W6lAmNGfn5ar/nvrgHx64dO5V2hU+z3zsqz+HX1X+iRV2PfV8zN92vSz76QJd8+AuFrXaFaurNQwEAAAAMk+bzylqzNi5hL3PZkri9V6pLmdCYPj9P7v3PxT04hi1LWUuXKM3nVXp+XtQEOJLk8niUPj9PA/yyAgAAAOc1o3iVZq5fF5ewF8/3SnUpExo1ScExzedTT22dBoKtkqTMZYvlrn7Zbh8ItqqvKcA6jQAAAMAYRIW9zi6z+aLE871SmSscDofNolP0n2gZ9QnfwMen1f3kU8pa+U1l/kmR2Twm/c0tSs+fp3Bnl7qffEr9zSeVs/27Ss/PG3y6mJ+nzi1bFaqtV0bh9XJXH7SPfeyWW3XDjV+Per/JduTI2/qP//xP/XbOl8wmAACAhLDot/+pPN+XdPnll9u1Tz/9VP/5n7+V94tfjNp3uL7+fmWkp5vlUV3MvrrI/SdrX13k/hezr4b2/9ff/EZ5+VebTePS0tKs4jXFZvmi9f3jP6n3Z/+gmRvWy5U902yWJKVdfplcw35fYuk9+jOF6v9GOf9zp1yzcsxmSVLG/MH7eIzk6NB4Pv0nWtR+z31y739O6fPzzOYxGf5XF3nkPfwXrbehUWlX+JSeH/3+d/7ZHVpZXBJVm2wvVu6X9ze/0VXf+lOzCQAAICH866FDumTxYl19zTVmE5JIw+G3tPe5Z83yuPTU1OlsZZU8rx2ccKCL53ulmpQNjYpDcBzvX926O+7UN1evMcuT7pJTv9SZub9nlgEAABIC9yrOEM/QqDiHvXi+VypJqTGNpomOcXS5XKNuPQdeksvlUqi2XtZNt0rt7VHtAAAAAMYmnhPaxPO9UklKh0bFITiOxpUz2E+aX0oAAABg4uJ5Xx3P90oVKR8aNSw4jjZpznikXTnH/nlG8Spll5XyCwkAAABMQDzvq+P5XqmA0DgkfX6eMhcUmOW4yFq2RGk+n1kGAAAAcBHieV8dz/dyOkIjAAAAACAmQiMAAAAAICZCIwAAAAAgJkIjAAAAACAmQiMAAAAAICZCIwAAAAAgJkIjAAAAACAmQiMAAAAAICZCIwAAAAAgJkIjAAAAACAmQiMAAAAAICZCIwAAAAAgJkIjAAAAACAmQiMAAAAAICZCIwAAAAAgJkIjAAAAACAmQiMAAAAAICZCIwAAAAAgJkIjAAAAACAmQiMAAAAAICZC4yRIv8JrlgAAAAAgKREaJ0Gaz2eWAAAAACApERoBAAAAADERGgEAAAAAMREaAQAAAAAxERoBAAAAADERGqeB2+MxSwAAAACQkAiN02DGjBlmCQAAAAASEqERAAAAABAToREAAAAAEBOhEQAAAAAQkyscDofNIibXrTev0Nzf/29mOe66OrvU1dVpv/69M2365SWzo/YBUlU4HFZfb59ZnhKutDRlZKSbZQBIedyrTK9LL/2c0uPw79PJ5ma9+fZhs4wkRmhMIb1NAWUuKDDLAAAACYF7FSAx0T0VAAAAABAToREAAAAAEBOhEQAAAAAQE6ERAAAAABAToREAAAAAEBOhEQAAAAAQE6ERAAAAABAToREAAAAAEBOhEQAAAAAQE6ERAAAAABAToREAUkg4HE7YDQAAJCZCIwAAAAAgJkIjAKSwzi1b1ecPmGVbqKZen82ZG1Xr8wf02Zy5UVt3eYXdHrYsde3YqbaFRWovWTvi/QeCrerYsFFtC4vUsWGjBoKtUe0AACCxEBpTVP+JFn02/ytmGUCK6PMH1LawSKHaerPJFgl/o8kovF7u6pftbUbxKrvtbGWV+poCyi4rVZrPp457NipsWXZ755aHJUnZZaUKW5b9GgCG6z/RojMLbjDLAKYBoTEF9Z9okbXmNuU8us1sApBCsopXKs3rNcu2s5VVZkmS1NsUUEZhQdSW5jv3Pmf3PKNZTz2hrOKVmrV7l9Ln5ylUMxhO+5tb1H+iRbN271JW8Url7tur/hMt6m9uGfYnAEh1/Sda1H7PfXLvf85sAjANCI0pZnhgHP5kAEBqySgsGHwSeMXooXEg2Kqze57RjPXrzCZbnz+gPn8g6ilinz+gNK9X6fl5di2jsEB9Q6Ew1NCojAUFcnk8kiSXx6P0+Xnqa4rdRRZAahkeGNPnn7uWAJg+hMYUMvDxaQIjgDHp3PKwslavVOaCArNJktRTWaX2ktvVuXmr2hYWRT0pNINoRn6eBoJB+/XwQKmhUDkwLHgCSF0DH58mMAIJyBVmnvOU0H+iRdbKYs1Yd6cyi75mNgNIERmF10e9bi9Zq+yyUmUUnguHff6AOu7ZqNnvH1V/c4vaS27XpadP2e3d5RXq8weUu2+vXB6POjZslCTl7tur3oZGnT1QJXf1waj36y6vkLv6oD1hTnZZadT7SVLmgkK7BiD1DHx8Wl27npTn4EsERiDBEBpTQKRL6ozbb1POXz5kNgNIIeYlf7TQ2LawSOnz8zRz/Tr1n2hR12Pfl7v6ZaX5fFFjFyOGh8LhP0eEaurVU1sXMzR2btmqNJ9XOZsfsGsAUkukS2p26Z9rxp+uMZsBTDO6pzrc8DGMPGEEMBZpV3gVtix1l1eop6ZOijxdHBp32FNZFdUdNdx2rmupy+NRn/+Y/VqS+pqb7S6p6T7fiCU4+k80K8PosgogdQwfw5h25RyzGUACIDQ6GJPeABgPd/VBe4vMsuyuPqis4pWSpN6hp4kRoSPv2BPbpOfnKc3rtWdLDVuWQjX1yhx6kpmxoEB9/mP22oz9zS3qbzmp9Pn59vsBSB1MegMkB0KjgxEYAUyG7LJS9TUNrvNoLV+hUG29crafW8InZ/t31fngVlnLV9hdXTOXLZEkpfm8mnH3nWpbVKT2krWybrpVMzfdP2q3VwDONhAMEhiBJMGYRgfrP9ESdRHubQrEnAkRQGowL/mhmnplLIheZ3G4gWCremrqosYgRuq9DY0asCzNKF414vj+5haFGhqV7vPZTyiH621oVF9zizIXDK7zKEkul8vcDYCDhS1LYctSms9n17hXARIToTGFcCEGkMiXfEIjAO5VgMRE91QASCEulythNwAAkJh40phCwpZlT1YBAACQaLhXARIToREAAAAAEBPdUwEAAAAAMREaAQAAAAAxERoBAAAAADERGgEAAAAAMREaAQAAAAAxERoBAAAAADERGgEAAAAAMREaAQAAAAAxERoBAAAAADERGgEAAAAAMREaAQAAAAAxERoBAAAAADERGgEAAAAAMREaAQAAAAAxERoBAAAAADERGgEAAAAAMREaAQAAAAAxERoBAAAAADERGgEAAAAAMREaAQAAAAAxERoBAAAAADERGgEAAAAAMREaAQAAAAAxERoBAAAAADERGgEAAAAAMREaAQAAAAAxERoBAAAAADH9/3BqgJKHO1NDAAAAAElFTkSuQmCC;movable=0;resizable=0;rotatable=0;deletable=0;editable=0;locked=1;connectable=0;clipPath=inset(18% 7% 3.33% 4.33%);" vertex="1" parent="1">
          <mxGeometry x="136.78" y="190" width="811.52" height="360" as="geometry" />
        </mxCell>
        <mxCell id="EJZDBceL4xU_-vnDfcPd-2" value="" style="endArrow=none;dashed=1;html=1;dashPattern=1 3;strokeWidth=4;rounded=0;fillColor=#3333FF;strokeColor=light-dark(#FF3399,#FFFFFF);" edge="1" parent="1">
          <mxGeometry width="50" height="50" relative="1" as="geometry">
            <mxPoint x="220" y="270" as="sourcePoint" />
            <mxPoint x="220" y="270" as="targetPoint" />
            <Array as="points">
              <mxPoint x="220" y="480" />
              <mxPoint x="610" y="480" />
              <mxPoint x="610" y="270" />
            </Array>
          </mxGeometry>
        </mxCell>
        <mxCell id="EJZDBceL4xU_-vnDfcPd-3" value="&lt;font style=&quot;color: rgb(255, 255, 255);&quot;&gt;ワーク・上演の間&lt;/font&gt;" style="text;html=1;align=center;verticalAlign=middle;whiteSpace=wrap;rounded=0;strokeColor=#3333FF;fillColor=#FF3399;" vertex="1" parent="1">
          <mxGeometry x="362" y="430" width="103" height="30" as="geometry" />
        </mxCell>
        <mxCell id="EJZDBceL4xU_-vnDfcPd-4" value="" style="endArrow=none;dashed=1;html=1;dashPattern=1 3;strokeWidth=4;rounded=0;fillColor=#3333FF;strokeColor=light-dark(#00CC00,#FFFFFF);" edge="1" parent="1">
          <mxGeometry width="50" height="50" relative="1" as="geometry">
            <mxPoint x="619" y="270" as="sourcePoint" />
            <mxPoint x="619" y="270" as="targetPoint" />
            <Array as="points">
              <mxPoint x="619" y="480" />
              <mxPoint x="780" y="480" />
              <mxPoint x="780" y="330" />
              <mxPoint x="870" y="330" />
              <mxPoint x="870" y="270" />
            </Array>
          </mxGeometry>
        </mxCell>
        <mxCell id="EJZDBceL4xU_-vnDfcPd-5" value="&lt;font style=&quot;color: rgb(255, 255, 255);&quot;&gt;展示の間&lt;/font&gt;" style="text;html=1;align=center;verticalAlign=middle;whiteSpace=wrap;rounded=0;strokeColor=#3333FF;fillColor=light-dark(#00CC00,#FFFFFF);" vertex="1" parent="1">
          <mxGeometry x="650" y="430" width="103" height="30" as="geometry" />
        </mxCell>
        <mxCell id="EJZDBceL4xU_-vnDfcPd-6" value="" style="ellipse;whiteSpace=wrap;html=1;aspect=fixed;fillColor=light-dark(#FFFFCC,var(--ge-dark-color, #121212));" vertex="1" parent="1">
          <mxGeometry x="510" y="290" width="20" height="20" as="geometry" />
        </mxCell>
        <mxCell id="EJZDBceL4xU_-vnDfcPd-7" value="" style="ellipse;whiteSpace=wrap;html=1;aspect=fixed;fillColor=light-dark(#FFFFCC,var(--ge-dark-color, #121212));" vertex="1" parent="1">
          <mxGeometry x="540" y="420" width="20" height="20" as="geometry" />
        </mxCell>
        <mxCell id="EJZDBceL4xU_-vnDfcPd-8" value="" style="ellipse;whiteSpace=wrap;html=1;aspect=fixed;fillColor=light-dark(#FFFFCC,var(--ge-dark-color, #121212));" vertex="1" parent="1">
          <mxGeometry x="570" y="390" width="20" height="20" as="geometry" />
        </mxCell>
        <mxCell id="EJZDBceL4xU_-vnDfcPd-9" value="" style="ellipse;whiteSpace=wrap;html=1;aspect=fixed;fillColor=light-dark(#FFFFCC,var(--ge-dark-color, #121212));" vertex="1" parent="1">
          <mxGeometry x="570" y="340" width="20" height="20" as="geometry" />
        </mxCell>
        <mxCell id="EJZDBceL4xU_-vnDfcPd-10" value="" style="ellipse;whiteSpace=wrap;html=1;aspect=fixed;fillColor=light-dark(#FFFFCC,var(--ge-dark-color, #121212));" vertex="1" parent="1">
          <mxGeometry x="570" y="290" width="20" height="20" as="geometry" />
        </mxCell>
        <mxCell id="EJZDBceL4xU_-vnDfcPd-11" value="" style="ellipse;whiteSpace=wrap;html=1;aspect=fixed;fillColor=light-dark(#FFFFCC,var(--ge-dark-color, #121212));" vertex="1" parent="1">
          <mxGeometry x="540" y="320" width="20" height="20" as="geometry" />
        </mxCell>
        <mxCell id="EJZDBceL4xU_-vnDfcPd-12" value="" style="ellipse;whiteSpace=wrap;html=1;aspect=fixed;fillColor=light-dark(#FFFFCC,var(--ge-dark-color, #121212));" vertex="1" parent="1">
          <mxGeometry x="540" y="370" width="20" height="20" as="geometry" />
        </mxCell>
        <mxCell id="EJZDBceL4xU_-vnDfcPd-13" value="" style="ellipse;whiteSpace=wrap;html=1;aspect=fixed;fillColor=light-dark(#FFFFCC,var(--ge-dark-color, #121212));" vertex="1" parent="1">
          <mxGeometry x="570" y="440" width="20" height="20" as="geometry" />
        </mxCell>
        <mxCell id="EJZDBceL4xU_-vnDfcPd-14" value="" style="ellipse;whiteSpace=wrap;html=1;aspect=fixed;fillColor=light-dark(#FFFFCC,var(--ge-dark-color, #121212));" vertex="1" parent="1">
          <mxGeometry x="465" y="290" width="20" height="20" as="geometry" />
        </mxCell>
        <mxCell id="EJZDBceL4xU_-vnDfcPd-15" value="" style="ellipse;whiteSpace=wrap;html=1;aspect=fixed;fillColor=light-dark(#FFFFCC,var(--ge-dark-color, #121212));" vertex="1" parent="1">
          <mxGeometry x="413.5" y="290" width="20" height="20" as="geometry" />
        </mxCell>
        <mxCell id="EJZDBceL4xU_-vnDfcPd-16" value="客席は各上演に合わせて移動予定" style="shape=callout;whiteSpace=wrap;html=1;perimeter=calloutPerimeter;position2=0.38;" vertex="1" parent="1">
          <mxGeometry x="540" y="170" width="200" height="70" as="geometry" />
        </mxCell>
      </root>
    </mxGraphModel>
  </diagram>
</mxfile>
